<svg width="1260" height="202" viewBox="0 0 1260 202" fill="none" xmlns="http://www.w3.org/2000/svg">
<g clip-path="url(#clip0_6_2)">
<path d="M907.93 27.93C909.95 33.6 912.46 39.05 914.25 44.82C934.05 108.7 901.61 165.97 845.14 195.64C841.26 197.68 837.19 199.31 833.34 201.41L832.67 200.52C869.84 183.22 902.11 150.85 911.23 109.86C917.52 81.57 912.49 51.16 898.2 26.17C877.54 21.97 857.19 15.77 836.36 12.3C809.84 7.89001 765.96 4.62001 753.91 35.47C752.6 38.82 750.68 51.11 744.61 47.26C740.35 44.56 745.19 32.59 746.96 28.97C764.56 -7.06999 818.29 0.22001 850.17 7.51001C892.23 17.13 925.94 30.57 970.8 26.58C996.94 24.25 1022.06 14.24 1043.81 0.0100098C1044.39 0.59001 1044.7 0.46001 1044.01 1.10001C1041.97 2.97001 1037.9 5.41001 1035.44 6.95001C1020.46 16.33 1002.87 23.64 985.54 27.35C959.88 32.84 933.76 31.8 907.94 27.94L907.93 27.93Z" fill="black"/>
<path d="M0.750003 164.12C-0.319997 162.41 -0.319997 161.13 1.18 159.42L1.82 158.78C3.74 156.86 5.88 157.93 6.73 159.42C13.56 170.1 24.67 178.43 43.24 178.43C66.3 178.43 79.11 165.4 79.11 146.83C79.11 127.19 64.59 118.43 46.87 109.68L28.72 100.71C12.92 93.24 4.38 81.92 4.38 66.54C4.38 45.83 21.25 31.95 43.24 31.95C59.9 31.95 72.49 39.42 80.61 50.53C82.75 53.09 82.11 54.16 80.4 55.87C78.26 57.79 76.56 57.15 74.85 55.23C67.16 45.19 57.55 39.22 43.25 39.22C26.38 39.22 12.08 47.97 12.08 66.13C12.08 78.51 18.49 87.48 32.79 94.53L51.58 103.93C69.94 113.11 86.81 123.57 86.81 146.63C86.81 169.69 70.37 185.71 42.82 185.71C21.89 185.71 8.66 176.53 0.760003 164.14L0.750003 164.12Z" fill="black"/>
<path d="M146.16 180.34V40.91H112.42C110.5 40.91 109.64 39.84 109.64 37.92V36.43C109.64 34.51 110.49 33.66 112.42 33.66H187.37C189.29 33.66 190.15 34.51 190.15 36.43V37.92C190.15 39.84 189.3 40.91 187.37 40.91H153.85V180.34C153.85 182.26 152.78 183.12 150.86 183.12H148.94C147.02 183.12 146.16 182.27 146.16 180.34Z" fill="black"/>
<path d="M225.37 138.28V36.42C225.37 34.5 226.22 33.65 228.15 33.65H230.29C232.21 33.65 233.07 34.5 233.07 36.42V135.93C233.07 165.61 249.73 178.42 271.5 178.42C293.27 178.42 309.94 165.61 309.94 135.93V36.42C309.94 34.5 311.01 33.65 312.93 33.65H314.85C316.77 33.65 317.63 34.5 317.63 36.42V138.27C317.63 168.38 299.48 185.89 271.51 185.89C243.54 185.89 225.39 168.38 225.39 138.27L225.37 138.28Z" fill="black"/>
<path d="M357.1 180.34V36.42C357.1 34.5 357.95 33.65 359.88 33.65H386.14C439.09 33.65 461.94 65.25 461.94 108.38C461.94 151.51 439.09 183.11 386.14 183.11H359.88C357.96 183.11 357.1 182.26 357.1 180.33V180.34ZM386.14 175.86C433.76 175.86 454.25 149.81 454.25 108.39C454.25 66.97 433.75 40.92 386.14 40.92H364.79V175.87H386.14V175.86Z" fill="black"/>
<path d="M497.38 180.34V36.42C497.38 34.5 498.23 33.65 500.15 33.65H502.29C504.21 33.65 505.06 34.5 505.06 36.42V180.34C505.06 182.26 504.21 183.12 502.29 183.12H500.15C498.23 183.12 497.38 182.27 497.38 180.34Z" fill="black"/>
<path d="M541.36 109.03C541.36 65.68 574.24 31.95 617.59 31.95C660.94 31.95 693.61 65.69 693.61 109.03C693.61 152.37 660.73 185.9 617.59 185.9C574.45 185.9 541.36 152.16 541.36 109.03ZM617.59 178.42C656.45 178.42 685.92 148.74 685.92 109.02C685.92 69.3 656.45 39.41 617.59 39.41C578.73 39.41 549.26 69.09 549.26 109.02C549.26 148.95 578.51 178.42 617.59 178.42Z" fill="black"/>
<path d="M992.79 180.8V60.73C992.79 59.13 993.64 58.42 995.56 58.42H997.7C999.62 58.42 1000.47 59.13 1000.47 60.73V180.8C1000.47 182.4 999.62 183.12 997.7 183.12H995.56C993.64 183.12 992.79 182.41 992.79 180.8Z" fill="black"/>
<path d="M1041.04 180.34V36.42C1041.04 34.5 1041.89 33.65 1043.81 33.65H1112.99C1114.91 33.65 1115.77 34.5 1115.77 36.42V37.91C1115.77 39.83 1114.92 40.9 1112.99 40.9H1048.72V101.54H1109.79C1111.71 101.54 1112.57 102.39 1112.57 104.32V105.81C1112.57 107.73 1111.72 108.8 1109.79 108.8H1048.72V175.85H1113.21C1115.13 175.85 1116.2 176.92 1116.2 178.84V180.33C1116.2 182.25 1115.13 183.11 1113.21 183.11H1043.81C1041.89 183.11 1041.04 182.26 1041.04 180.33V180.34Z" fill="black"/>
<path d="M1154.63 180.34V36.42C1154.63 34.5 1155.48 33.65 1157.4 33.65H1183.67C1236.62 33.65 1259.47 65.25 1259.47 108.38C1259.47 151.51 1236.62 183.11 1183.67 183.11H1157.4C1155.48 183.11 1154.63 182.26 1154.63 180.33V180.34ZM1183.67 175.86C1231.28 175.86 1251.78 149.81 1251.78 108.39C1251.78 66.97 1231.28 40.92 1183.67 40.92H1162.32V175.87H1183.67V175.86Z" fill="black"/>
</g>
<defs>
<clipPath id="clip0_6_2">
<rect width="1259.47" height="201.4" fill="white"/>
</clipPath>
</defs>
</svg>
