<svg width="485" height="324" viewBox="0 0 485 324" fill="none" xmlns="http://www.w3.org/2000/svg">
<g clip-path="url(#clip0_6_46)">
<path d="M439.21 288.75C441.08 288.36 443.94 288.03 445.26 289.69C445.8 292.26 436.14 293.87 439.48 302.05C442.3 308.94 452.08 307.42 451.86 299.96C451.77 296.75 448.1 285.65 455.91 292.2C460.65 296.18 463.46 301.84 461.4 308.01C455.66 325.19 433.01 320.56 430.06 303.41C429.03 297.42 433.12 290.02 439.2 288.74L439.21 288.75Z" fill="#355923"/>
<path d="M265.14 44.87C268.39 53.97 272.42 62.74 275.29 72C307.1 174.64 254.97 266.65 164.26 314.31C158.02 317.59 151.49 320.21 145.31 323.58L144.23 322.16C203.94 294.37 255.8 242.36 270.44 176.5C280.54 131.05 272.46 82.19 249.51 42.04C216.31 35.3 183.62 25.33 150.16 19.76C107.53 12.67 37.03 7.42 17.68 56.99C15.58 62.38 12.49 82.11 2.73996 75.93C-4.10004 71.59 3.67996 52.36 6.50996 46.54C34.79 -11.35 121.11 0.35 172.33 12.06C239.9 27.51 294.07 49.11 366.14 42.69C408.13 38.95 448.5 22.87 483.44 0C484.36 0.94 484.87 0.72 483.75 1.75C480.48 4.75 473.93 8.67 469.97 11.15C445.9 26.22 417.64 37.97 389.8 43.93C348.57 52.75 306.61 51.08 265.13 44.88L265.14 44.87Z" fill="#355923"/>
</g>
<defs>
<clipPath id="clip0_6_46">
<rect width="484.39" height="323.59" fill="white"/>
</clipPath>
</defs>
</svg>
